<svg width="175" height="41" viewBox="0 0 175 41" xmlns="http://www.w3.org/2000/svg" fill="none"><path d="M40.952 36.926l-.48 1.291h-10.198c-.654 0-1.128-.62-.952-1.247l3.744-13.362h5.794s-3.727 13.269-3.745 13.318h5.838zm31.051-.041c.019-.051.847-3.015.847-3.015.173-.626-.301-1.243-.954-1.243h-19.899l-1.698-4.621c4.644.173 8.042-2.86 7.971-7.158-.072-4.416-3.708-7.986-8.166-7.986h-12.526c-.888 0-1.667.588-1.905 1.439l-1.152 4.111h15.295c1.763 0 2.684.937 2.852 2.233.202 1.568-1.172 2.91-3.157 2.91-1.263 0-6.768.06-6.768.06l4.893 13.307c.295.757 1.028 1.255 1.844 1.255h28.289l.374-1.291h-6.139zm31.508-24.023h-3.952c-.674 0-1.302.341-1.665.905l-11.104 17.146-3.285-17.251c-.089-.464-.496-.8-.971-.8h-18.525c-.891 0-1.672.593-1.908 1.447l-.787 2.859c-.172.625.301 1.242.954 1.242h16.22l3.883 19.023c.095.457.499.784.968.784h14.796l.362-1.291h-8.922l14.764-22.545c.429-.654-.043-1.519-.828-1.519zm43.34 7.736c-.205-4.335-3.855-7.731-8.309-7.731h-12.377c-.888 0-1.668.59-1.905 1.441l-4.162 14.938c-.728 2.624-3.15 4.456-5.888 4.456h-.113c-1.344 0-2.645-.588-3.446-1.661-.763-1.022-1.005-2.309-.664-3.54l3.999-14.349h4.575l.369-1.291h-8.871c-.888 0-1.668.59-1.905 1.441l-3.547 12.722c-.816 2.94-.214 6.019 1.652 8.443 1.731 2.248 4.396 3.568 7.223 3.758v.027h21.466l.383-1.291h-15.786c2.838-1.454 5.044-4.037 5.932-7.237l3.432-12.308h9.166c2.358 0 3.138 1.096 3.201 2.444.036.766-.578 2.7-2.671 2.7-1.214 0-3.55.025-5.088.043-.879.01-1.644.595-1.88 1.437l-.806 2.872c-.177.629.3 1.251.957 1.245 1.98-.017 5.637-.048 6.906-.048 2.221 0 4.375-.917 5.909-2.515 1.556-1.622 2.355-3.751 2.248-5.995zm-7.587 14.594h-7.307l-.375 1.291h7.312l.37-1.291zm-64.609-8.189c.017-.047.869-3.007.869-3.007.179-.627-.296-1.251-.951-1.251h-12.309c-.896 0-1.681.599-1.911 1.46l-.764 2.853c-.167.624.306 1.236.956 1.236h16.874l.349-1.291h-3.112v-.001zM10.143 12.054l-.467 1.641c-.138.485-.583.819-1.089.819h-8.059c-.348 0-.601-.331-.508-.664l3.672-13.085c.127-.452.542-.765 1.015-.765h1.79c.348 0 .601.331.508.664l-2.996 10.674h5.59c.375 0 .646.357.545.716zm32.453-12.054h-9.449c-.472 0-.887.313-1.014.765l-3.672 13.084c-.094.334.159.664.508.664h1.79c.472 0 .887-.313 1.014-.765l1.286-4.581h5.039c.506 0 .951-.335 1.09-.819l.467-1.641c.102-.359-.169-.716-.545-.716h-5.16l.79-2.815h6.843c.506 0 .951-.335 1.089-.819l.467-1.641c.103-.359-.168-.715-.544-.715zm-18.66 0h-7.045c-.472 0-.887.313-1.015.765l-3.672 13.084c-.094.334.159.664.507.664h1.79c.472 0 .887-.313 1.014-.765l2.979-10.616.001.001h5.176c1.331 0 1.772.619 1.808 1.38.02.433-.327 1.524-1.509 1.524-.686 0-2.007.014-2.876.024-.494.006-.926.335-1.058.809l-.456 1.625c-.1.355.171.706.541.703 1.118-.01 3.182-.027 3.899-.027 1.255 0 2.471-.518 3.337-1.421.879-.916 1.33-2.118 1.27-3.385-.115-2.447-2.176-4.365-4.692-4.365zM156.165 31.899c-.721-.936-1.863-1.456-3.049-1.456h-.009c-2.015 0-3.797 1.349-4.334 3.28l-.713 2.572c-.315 1.131-.083 2.316.635 3.248.721.936 1.863 1.456 3.049 1.456h.009c2.015 0 3.798-1.349 4.335-3.28l.713-2.572c.313-1.131.082-2.316-.636-3.248zm-2.147 5.252c-.28 1.009-1.211 1.714-2.265 1.714h-.043c-.517 0-1.018-.226-1.326-.639-.294-.393-.387-.889-.255-1.362l.702-2.519h-.004l.014-.052c.281-1.009 1.212-1.714 2.265-1.714h.044c.517 0 1.018.226 1.326.639.293.393.387.889.255 1.361l-.713 2.572zM144.469 30.452c-2.512-.138-4.077 1.437-4.595 2.877-.067.185.078.379.276.379l1.634-.002c.197 0 .372-.109.479-.274.302-.471 1.02-.973 1.879-.884 1.337.139 1.482 1.104 1.298 1.733-.489 1.672-5.718 1.582-7.225 5.911-.065.187.076.383.275.383h6.953c.241 0 .453-.162.515-.393l.4-1.482c.05-.183-.089-.363-.28-.363h-4.388c1.417-.47 5.098-.749 5.953-3.567.522-1.713-.296-4.16-3.174-4.318zM174.227 31.899c-.721-.936-1.863-1.456-3.049-1.456h-.009c-2.015 0-3.797 1.349-4.334 3.28l-.713 2.572c-.315 1.131-.083 2.316.635 3.248.721.936 1.863 1.456 3.049 1.456h.009c2.016 0 3.798-1.349 4.335-3.28l.713-2.572c.313-1.131.082-2.316-.636-3.248zm-2.147 5.252c-.28 1.009-1.211 1.714-2.265 1.714h-.043c-.517 0-1.018-.226-1.326-.639-.294-.393-.387-.889-.255-1.362l.702-2.519h-.004l.014-.052c.281-1.009 1.212-1.714 2.265-1.714h.044c.517 0 1.018.226 1.326.639.293.393.387.889.255 1.361l-.713 2.572zM162.531 30.452c-2.512-.138-4.077 1.437-4.595 2.877-.067.185.078.379.276.379l1.634-.002c.197 0 .372-.109.479-.274.302-.471 1.02-.973 1.879-.884 1.337.139 1.482 1.104 1.298 1.733-.489 1.672-5.718 1.582-7.225 5.911-.065.187.076.383.275.383h6.953c.241 0 .453-.162.515-.393l.4-1.482c.05-.183-.089-.363-.28-.363h-4.388c1.417-.47 5.098-.749 5.953-3.567.522-1.713-.296-4.16-3.174-4.318z" fill="#00B900"/></svg>